<svg width="50" height="32" viewBox="0 0 50 32" fill="none" xmlns="http://www.w3.org/2000/svg">
<path d="M14.1403 11.5949C14.1403 12.251 14.2067 12.7828 14.3225 13.1729C14.4696 13.6117 14.6466 14.0384 14.8522 14.4493C14.935 14.5911 14.968 14.733 14.968 14.8572C14.968 15.0343 14.8688 15.2117 14.6536 15.3891L13.6107 16.1336C13.4617 16.2401 13.3127 16.2932 13.1801 16.2932C13.0147 16.2932 12.8491 16.2045 12.6835 16.045C12.4605 15.7882 12.2609 15.5092 12.0876 15.2117C11.922 14.9105 11.7564 14.5734 11.5744 14.1657C10.2832 15.7967 8.66071 16.6124 6.70742 16.6124C5.31696 16.6124 4.20772 16.1868 3.39649 15.3359C2.58545 14.4847 2.17163 13.35 2.17163 11.9318C2.17163 10.4249 2.66825 9.20155 3.67809 8.27962C4.68774 7.35768 6.02879 6.89672 7.73387 6.89672C8.29669 6.89672 8.87611 6.94984 9.48854 7.03852C10.1012 7.1272 10.7302 7.269 11.3924 7.42859V6.13436C11.3924 4.78681 11.1274 3.8473 10.6142 3.29766C10.0846 2.74801 9.19053 2.48197 7.91588 2.48197C7.33645 2.48197 6.74062 2.55308 6.128 2.71266C5.51557 2.87204 4.91955 3.06717 4.34013 3.31543C4.07531 3.43946 3.8767 3.51036 3.7607 3.54592C3.64489 3.58147 3.56209 3.59904 3.49589 3.59904C3.26408 3.59904 3.14827 3.42168 3.14827 3.0494V2.18058C3.14827 1.89698 3.18147 1.68427 3.26408 1.56024C3.34688 1.43601 3.49589 1.31198 3.7277 1.18796C4.30712 0.868794 5.00235 0.602755 5.81339 0.390049C6.62482 0.159565 7.48565 0.0533168 8.39609 0.0533168C10.3662 0.0533168 11.8064 0.531853 12.7335 1.48934C13.6439 2.44662 14.1075 3.90043 14.1075 5.85076V11.5949H14.1407H14.1403ZM7.41925 14.2898C7.96567 14.2898 8.5285 14.1835 9.12433 13.9706C9.72035 13.7579 10.2502 13.3678 10.697 12.836C10.962 12.4992 11.1606 12.1269 11.2598 11.7013C11.3592 11.2759 11.4254 10.7616 11.4254 10.1588V9.41426C10.9234 9.28339 10.4149 9.18277 9.90236 9.11287C9.38625 9.04267 8.86655 9.00711 8.34629 9.00642C7.23705 9.00642 6.42601 9.2369 5.87979 9.71564C5.33337 10.1944 5.06855 10.8681 5.06855 11.7544C5.06855 12.5877 5.26716 13.2082 5.68098 13.6339C6.0784 14.0771 6.65782 14.2898 7.41925 14.2898ZM20.7124 16.2045C20.4144 16.2045 20.2158 16.1514 20.0834 16.0272C19.951 15.9209 19.835 15.6727 19.7358 15.3359L15.8456 1.63115C15.746 1.27643 15.6964 1.04594 15.6964 0.921918C15.6964 0.63831 15.8288 0.478519 16.0938 0.478519H17.7161C18.0305 0.478519 18.2459 0.531853 18.3617 0.655879C18.4941 0.762336 18.5935 1.0106 18.6927 1.34733L21.4738 13.0842L24.0564 1.34733C24.1392 0.99282 24.2386 0.762336 24.3708 0.655879C24.5034 0.54963 24.7352 0.478729 25.0332 0.478729H26.3575C26.6719 0.478729 26.8873 0.531853 27.0195 0.655879C27.1521 0.762336 27.2679 1.0106 27.3341 1.34733L29.9498 13.226L32.8135 1.34733C32.9127 0.99282 33.0287 0.762336 33.1445 0.655879C33.2769 0.54963 33.4922 0.478729 33.7902 0.478729H35.3296C35.5946 0.478729 35.7437 0.620532 35.7437 0.921918C35.7437 1.0106 35.7271 1.09928 35.7104 1.20553C35.6939 1.31198 35.6609 1.45379 35.5946 1.64892L31.6049 15.3535C31.5057 15.7082 31.3899 15.9387 31.2573 16.045C31.1249 16.1514 30.9097 16.2223 30.6284 16.2223H29.2048C28.8902 16.2223 28.675 16.1692 28.5424 16.045C28.4099 15.9209 28.2941 15.6904 28.2279 15.3359L25.6618 3.90043L23.1125 15.3179C23.0299 15.6727 22.9305 15.9031 22.7981 16.0272C22.6657 16.1514 22.4339 16.2045 22.1361 16.2045H20.7122H20.7124ZM41.9847 16.6833C41.1239 16.6833 40.263 16.5768 39.4354 16.3641C38.6076 16.1514 37.9621 15.9207 37.5317 15.6551C37.2667 15.4953 37.0845 15.3182 37.0185 15.1586C36.954 15.0021 36.9202 14.8331 36.9191 14.662V13.7579C36.9191 13.3856 37.0515 13.2082 37.2999 13.2082C37.4013 13.2086 37.5019 13.2267 37.5979 13.2616C37.6971 13.2971 37.8461 13.3678 38.0117 13.4387C38.5964 13.7142 39.2068 13.9222 39.8326 14.0593C40.4811 14.2002 41.141 14.2715 41.8027 14.272C42.8455 14.272 43.6568 14.0771 44.2196 13.687C44.7824 13.2969 45.0804 12.7297 45.0804 12.0027C45.0804 11.5064 44.9314 11.0985 44.6334 10.7616C44.3354 10.4249 43.7726 10.1235 42.9615 9.83967L40.5611 9.04197C39.3526 8.63413 38.4588 8.03136 37.9123 7.23345C37.3661 6.45332 37.0847 5.58472 37.0847 4.66278C37.0847 3.91821 37.2337 3.2621 37.5317 2.69468C37.8295 2.12746 38.227 1.63115 38.7236 1.24108C39.2202 0.833238 39.783 0.531853 40.4452 0.319147C41.1073 0.106441 41.8025 0.0177612 42.5309 0.0177612C42.8951 0.0177612 43.276 0.035539 43.6402 0.0886632C44.021 0.141787 44.3686 0.212689 44.7162 0.283591C45.0472 0.372271 45.3619 0.460951 45.6599 0.567408C45.9579 0.673657 46.1895 0.780114 46.3551 0.886362C46.5869 1.02838 46.7523 1.17018 46.8517 1.32976C46.9511 1.47157 47.0007 1.66649 47.0007 1.91475V2.74801C47.0007 3.1203 46.8683 3.31543 46.6199 3.31543C46.4875 3.31543 46.2723 3.24432 45.9911 3.10252C45.0472 2.64155 43.9878 2.41107 42.8125 2.41107C41.8689 2.41107 41.1239 2.57065 40.6107 2.90759C40.0976 3.24432 39.8326 3.75862 39.8326 4.48542C39.8326 4.98194 39.9982 5.40736 40.3292 5.7443C40.6605 6.08103 41.2729 6.41797 42.1503 6.71936L44.501 7.51726C45.6929 7.92511 46.5537 8.49232 47.0669 9.21912C47.5801 9.94613 47.8286 10.7794 47.8286 11.7013C47.8286 12.4637 47.6794 13.1551 47.3979 13.7579C47.1001 14.3607 46.7027 14.8925 46.1895 15.3182C45.6763 15.7613 45.0638 16.0805 44.352 16.311C43.607 16.5593 42.8289 16.6833 41.9847 16.6833Z" fill="white"/>
<path d="M45.1134 25.2996C39.6672 29.6079 31.7541 31.895 24.9504 31.895C15.415 31.895 6.82341 28.1186 0.334141 21.8424C-0.17908 21.3461 0.284342 20.6724 0.89677 21.0623C7.91586 25.4239 16.5738 28.0654 25.5298 28.0654C31.5721 28.0654 38.2103 26.7181 44.319 23.9523C45.2294 23.5089 46.0075 24.5906 45.1134 25.2996ZM47.3815 22.5338C46.6863 21.5766 42.7793 22.0729 41.008 22.3034C40.4782 22.3745 40.3954 21.8779 40.8756 21.5057C43.9878 19.1653 49.1032 19.8391 49.699 20.6191C50.295 21.417 49.5334 26.8953 46.6199 29.5193C46.1731 29.9271 45.7426 29.7144 45.9413 29.1825C46.6033 27.4271 48.0767 23.4736 47.3815 22.5338Z" fill="white"/>
<path d="M14.8281 24L14.2061 22.4106H12.2031L11.5879 24H11L12.9756 18.9824H13.4644L15.4297 24H14.8281ZM14.0249 21.8877L13.4438 20.3394C13.3687 20.1434 13.2912 19.903 13.2114 19.6182C13.1613 19.8369 13.0895 20.0773 12.9961 20.3394L12.4082 21.8877H14.0249ZM18.5947 24V21.5767C18.5947 21.2713 18.5252 21.0435 18.3862 20.8931C18.2472 20.7427 18.0296 20.6675 17.7334 20.6675C17.3415 20.6675 17.0544 20.7734 16.8721 20.9854C16.6898 21.1973 16.5986 21.547 16.5986 22.0347V24H16.0312V20.2539H16.4927L16.585 20.7666H16.6123C16.7285 20.582 16.8914 20.4396 17.1011 20.3394C17.3107 20.2368 17.5443 20.1855 17.8018 20.1855C18.2529 20.1855 18.5924 20.2949 18.8203 20.5137C19.0482 20.7301 19.1621 21.0776 19.1621 21.5562V24H18.5947ZM22.6348 24L22.522 23.4668H22.4946C22.3078 23.7015 22.1209 23.861 21.9341 23.9453C21.7495 24.0273 21.5182 24.0684 21.2402 24.0684C20.8688 24.0684 20.5771 23.9727 20.3652 23.7812C20.1556 23.5898 20.0508 23.3175 20.0508 22.9644C20.0508 22.2078 20.6558 21.8114 21.8657 21.7749L22.5015 21.7544V21.522C22.5015 21.228 22.4377 21.0116 22.3101 20.8726C22.1847 20.7313 21.9831 20.6606 21.7051 20.6606C21.3929 20.6606 21.0397 20.7563 20.6455 20.9478L20.4712 20.5137C20.6558 20.4134 20.8574 20.3348 21.0762 20.2778C21.2972 20.2209 21.5182 20.1924 21.7393 20.1924C22.1859 20.1924 22.5163 20.2915 22.7305 20.4897C22.9469 20.688 23.0552 21.0059 23.0552 21.4434V24H22.6348ZM21.353 23.6001C21.7062 23.6001 21.9831 23.5033 22.1836 23.3096C22.3864 23.1159 22.4878 22.8447 22.4878 22.4961V22.1577L21.9204 22.1816C21.4692 22.1976 21.1434 22.2682 20.9429 22.3936C20.7446 22.5166 20.6455 22.7091 20.6455 22.9712C20.6455 23.1763 20.707 23.3324 20.8301 23.4395C20.9554 23.5465 21.1297 23.6001 21.353 23.6001ZM24.7949 24H24.2275V18.6816H24.7949V24ZM25.4033 20.2539H26.0117L26.832 22.3901C27.012 22.8778 27.1237 23.2298 27.167 23.4463H27.1943C27.224 23.3301 27.2855 23.1318 27.3789 22.8516C27.4746 22.569 27.7845 21.7031 28.3086 20.2539H28.917L27.3071 24.5195C27.1476 24.9411 26.9608 25.2396 26.7466 25.415C26.5347 25.5928 26.2738 25.6816 25.9639 25.6816C25.7907 25.6816 25.6198 25.6623 25.4512 25.6235V25.1689C25.5765 25.1963 25.7166 25.21 25.8716 25.21C26.2612 25.21 26.5392 24.9912 26.7056 24.5537L26.9141 24.0205L25.4033 20.2539ZM31.9419 22.978C31.9419 23.3267 31.812 23.5955 31.5522 23.7847C31.2925 23.9738 30.9279 24.0684 30.4585 24.0684C29.9618 24.0684 29.5744 23.9897 29.2964 23.8325V23.3062C29.4764 23.3973 29.6689 23.4691 29.874 23.5215C30.0814 23.5739 30.2808 23.6001 30.4722 23.6001C30.7684 23.6001 30.9963 23.5534 31.1558 23.46C31.3153 23.3643 31.395 23.2196 31.395 23.0259C31.395 22.88 31.3312 22.7559 31.2036 22.6533C31.0783 22.5485 30.8322 22.4255 30.4653 22.2842C30.1167 22.1543 29.8683 22.0415 29.7202 21.9458C29.5744 21.8478 29.465 21.7373 29.3921 21.6143C29.3215 21.4912 29.2861 21.3442 29.2861 21.1733C29.2861 20.868 29.4103 20.6276 29.6587 20.4521C29.9071 20.2744 30.2477 20.1855 30.6807 20.1855C31.084 20.1855 31.4782 20.2676 31.8633 20.4316L31.6616 20.8931C31.2856 20.7381 30.945 20.6606 30.6396 20.6606C30.3708 20.6606 30.168 20.7028 30.0312 20.7871C29.8945 20.8714 29.8262 20.9876 29.8262 21.1357C29.8262 21.236 29.8512 21.3215 29.9014 21.3921C29.9538 21.4627 30.0369 21.5299 30.1509 21.5938C30.2648 21.6576 30.4836 21.7498 30.8071 21.8706C31.2515 22.0324 31.5511 22.1953 31.7061 22.3594C31.8633 22.5234 31.9419 22.7297 31.9419 22.978ZM33.4355 24H32.8682V20.2539H33.4355V24ZM32.8203 19.2388C32.8203 19.1089 32.8522 19.0143 32.916 18.9551C32.9798 18.8936 33.0596 18.8628 33.1553 18.8628C33.2464 18.8628 33.325 18.8936 33.3911 18.9551C33.4572 19.0166 33.4902 19.1112 33.4902 19.2388C33.4902 19.3664 33.4572 19.4621 33.3911 19.5259C33.325 19.5874 33.2464 19.6182 33.1553 19.6182C33.0596 19.6182 32.9798 19.5874 32.916 19.5259C32.8522 19.4621 32.8203 19.3664 32.8203 19.2388ZM37.0552 22.978C37.0552 23.3267 36.9253 23.5955 36.6655 23.7847C36.4058 23.9738 36.0412 24.0684 35.5718 24.0684C35.075 24.0684 34.6877 23.9897 34.4097 23.8325V23.3062C34.5897 23.3973 34.7822 23.4691 34.9873 23.5215C35.1947 23.5739 35.394 23.6001 35.5854 23.6001C35.8817 23.6001 36.1095 23.5534 36.269 23.46C36.4285 23.3643 36.5083 23.2196 36.5083 23.0259C36.5083 22.88 36.4445 22.7559 36.3169 22.6533C36.1916 22.5485 35.9455 22.4255 35.5786 22.2842C35.23 22.1543 34.9816 22.0415 34.8335 21.9458C34.6877 21.8478 34.5783 21.7373 34.5054 21.6143C34.4347 21.4912 34.3994 21.3442 34.3994 21.1733C34.3994 20.868 34.5236 20.6276 34.772 20.4521C35.0203 20.2744 35.361 20.1855 35.7939 20.1855C36.1973 20.1855 36.5915 20.2676 36.9766 20.4316L36.7749 20.8931C36.3989 20.7381 36.0583 20.6606 35.7529 20.6606C35.484 20.6606 35.2812 20.7028 35.1445 20.7871C35.0078 20.8714 34.9395 20.9876 34.9395 21.1357C34.9395 21.236 34.9645 21.3215 35.0146 21.3921C35.0671 21.4627 35.1502 21.5299 35.2642 21.5938C35.3781 21.6576 35.5968 21.7498 35.9204 21.8706C36.3647 22.0324 36.6644 22.1953 36.8193 22.3594C36.9766 22.5234 37.0552 22.7297 37.0552 22.978Z" fill="url(#paint0_linear)"/>
<defs>
<linearGradient id="paint0_linear" x1="25.5" y1="16" x2="25.5" y2="26" gradientUnits="userSpaceOnUse">
<stop offset="0.9999" stop-color="white"/>
<stop offset="1" stop-color="white" stop-opacity="0"/>
</linearGradient>
</defs>
</svg>
